<svg xmlns="http://www.w3.org/2000/svg" viewBox="0 0 24 24" fill="currentColor">
  <path fill-rule="evenodd" d="M12 2C6.477 2 2 6.484 2 12.017c0 4.425 2.865 8.18 6.839 9.504.47.087.686-.208.686-.468 0-.23-.009-.845-.014-1.659-2.782.603-3.37-1.34-3.37-1.34-.454-1.158-1.11-1.465-1.11-1.465-.908-.62.069-.608.069-.608 1.004.07 1.532 1.03 1.532 1.03.892 1.53 2.341 1.088 2.91.832.09-.646.35-1.088.636-1.338-2.22-.253-4.555-1.11-4.555-4.943 0-1.09.39-1.984 1.03-2.682-.104-.253-.448-1.27.097-2.646 0 0 .84-.27 2.75 1.025.798-.222 1.648-.333 2.495-.337.846.004 1.696.115 2.495.337 1.908-1.296 2.747-1.025 2.747-1.025.546 1.376.202 2.393.097 2.646.64.698 1.026 1.592 1.026 2.682 0 3.842-2.339 4.686-4.566 4.935.359.309.678.92.678 1.855 0 1.338-.012 2.417-.012 2.747 0 .262.214.559.69.467C21.134 20.197 24 16.442 24 12.017 24 6.484 19.522 2 14 2h-2z" clip-rule="evenodd"/>
</svg>
